<svg width="113" height="30" viewBox="0 0 113 30" fill="none" xmlns="http://www.w3.org/2000/svg">
<mask id="path-1-inside-1_7656_2694" fill="white">
<path d="M0 8C0 3.58172 3.58172 0 8 0H104.906C109.325 0 112.906 3.58172 112.906 8V22C112.906 26.4183 109.325 30 104.906 30H8C3.58172 30 0 26.4183 0 22V8Z"/>
</mask>
<path d="M0 8C0 3.58172 3.58172 0 8 0H104.906C109.325 0 112.906 3.58172 112.906 8V22C112.906 26.4183 109.325 30 104.906 30H8C3.58172 30 0 26.4183 0 22V8Z" fill="url(#paint0_linear_7656_2694)" fill-opacity="0.12"/>
<path d="M8 0V1H104.906V0V-1H8V0ZM112.906 8H111.906V22H112.906H113.906V8H112.906ZM104.906 30V29H8V30V31H104.906V30ZM0 22H1V8H0H-1V22H0ZM8 30V29C4.13401 29 1 25.866 1 22H0H-1C-1 26.9706 3.02944 31 8 31V30ZM112.906 22H111.906C111.906 25.866 108.772 29 104.906 29V30V31C109.877 31 113.906 26.9706 113.906 22H112.906ZM104.906 0V1C108.772 1 111.906 4.13401 111.906 8H112.906H113.906C113.906 3.02944 109.877 -1 104.906 -1V0ZM8 0V-1C3.02944 -1 -1 3.02944 -1 8H0H1C1 4.13401 4.13401 1 8 1V0Z" fill="url(#paint1_linear_7656_2694)" fill-opacity="0.16" mask="url(#path-1-inside-1_7656_2694)"/>
<g clip-path="url(#clip0_7656_2694)">
<path d="M17.9687 16.7501C17.9241 16.5771 17.8339 16.4192 17.7075 16.2928C17.5812 16.1665 17.4232 16.0763 17.2502 16.0316L14.1827 15.2406C14.1304 15.2258 14.0843 15.1943 14.0515 15.1508C14.0187 15.1074 14.001 15.0545 14.001 15.0001C14.001 14.9457 14.0187 14.8928 14.0515 14.8494C14.0843 14.806 14.1304 14.7745 14.1827 14.7596L17.2502 13.9681C17.4232 13.9235 17.5811 13.8334 17.7074 13.7071C17.8338 13.5809 17.924 13.4231 17.9687 13.2501L18.7597 10.1826C18.7744 10.1301 18.8059 10.0838 18.8494 10.0508C18.8928 10.0178 18.9459 10 19.0005 10C19.055 10 19.1081 10.0178 19.1516 10.0508C19.195 10.0838 19.2265 10.1301 19.2412 10.1826L20.0317 13.2501C20.0764 13.4232 20.1665 13.5811 20.2929 13.7074C20.4193 13.8338 20.5772 13.924 20.7502 13.9686L23.8177 14.7591C23.8705 14.7737 23.917 14.8051 23.9501 14.8487C23.9833 14.8922 24.0012 14.9454 24.0012 15.0001C24.0012 15.0548 23.9833 15.1081 23.9501 15.1516C23.917 15.1951 23.8705 15.2266 23.8177 15.2411L20.7502 16.0316C20.5772 16.0763 20.4193 16.1665 20.2929 16.2928C20.1665 16.4192 20.0764 16.5771 20.0317 16.7501L19.2407 19.8176C19.226 19.8702 19.1945 19.9165 19.1511 19.9494C19.1076 19.9824 19.0545 20.0002 19 20.0002C18.9454 20.0002 18.8923 19.9824 18.8489 19.9494C18.8054 19.9165 18.7739 19.8702 18.7592 19.8176L17.9687 16.7501Z" stroke="url(#paint2_linear_7656_2694)" stroke-linecap="round" stroke-linejoin="round"/>
<path d="M23 10.5V12.5" stroke="url(#paint3_linear_7656_2694)" stroke-linecap="round" stroke-linejoin="round"/>
<path d="M24 11.5H22" stroke="url(#paint4_linear_7656_2694)" stroke-linecap="round" stroke-linejoin="round"/>
<path d="M15 17.5V18.5" stroke="url(#paint5_linear_7656_2694)" stroke-linecap="round" stroke-linejoin="round"/>
<path d="M15.5 18H14.5" stroke="url(#paint6_linear_7656_2694)" stroke-linecap="round" stroke-linejoin="round"/>
</g>
<path d="M35.108 11.2784H36.6804C37.3452 11.2784 37.9347 11.4247 38.4489 11.7173C38.9659 12.0071 39.3707 12.4148 39.6634 12.9403C39.9588 13.4631 40.1065 14.071 40.1065 14.7642C40.1065 15.4517 39.9588 16.0554 39.6634 16.5753C39.3707 17.0952 38.9659 17.5014 38.4489 17.794C37.9347 18.0838 37.3452 18.2287 36.6804 18.2287H35.108C34.4432 18.2287 33.8523 18.0852 33.3352 17.7983C32.8182 17.5085 32.4119 17.1051 32.1165 16.5881C31.8239 16.071 31.6776 15.4673 31.6776 14.777C31.6776 14.081 31.8253 13.4702 32.1207 12.9446C32.4162 12.419 32.821 12.0099 33.3352 11.7173C33.8523 11.4247 34.4432 11.2784 35.108 11.2784ZM35.108 12.4162C34.6534 12.4162 34.2656 12.5114 33.9446 12.7017C33.6236 12.8892 33.3778 13.1591 33.2074 13.5114C33.0369 13.8636 32.9517 14.2855 32.9517 14.777C32.9517 15.2571 33.0369 15.6705 33.2074 16.017C33.3807 16.3608 33.6278 16.6264 33.9489 16.8139C34.2699 16.9986 34.6563 17.0909 35.108 17.0909H36.6847C37.1364 17.0909 37.5213 16.9986 37.8395 16.8139C38.1605 16.6264 38.4048 16.3594 38.5724 16.0128C38.7429 15.6634 38.8281 15.2472 38.8281 14.7642C38.8281 14.2784 38.7429 13.8608 38.5724 13.5114C38.4048 13.1591 38.1605 12.8892 37.8395 12.7017C37.5213 12.5114 37.1364 12.4162 36.6847 12.4162H35.108ZM36.544 10.1193V19.358H35.2528V10.1193H36.544ZM44.3988 19.1321C43.7852 19.1321 43.2496 18.9915 42.7923 18.7102C42.3349 18.429 41.9798 18.0355 41.7269 17.5298C41.4741 17.0241 41.3477 16.4332 41.3477 15.7571C41.3477 15.0781 41.4741 14.4844 41.7269 13.9759C41.9798 13.4673 42.3349 13.0724 42.7923 12.7912C43.2496 12.5099 43.7852 12.3693 44.3988 12.3693C45.0124 12.3693 45.5479 12.5099 46.0053 12.7912C46.4627 13.0724 46.8178 13.4673 47.0707 13.9759C47.3235 14.4844 47.4499 15.0781 47.4499 15.7571C47.4499 16.4332 47.3235 17.0241 47.0707 17.5298C46.8178 18.0355 46.4627 18.429 46.0053 18.7102C45.5479 18.9915 45.0124 19.1321 44.3988 19.1321ZM44.4031 18.0625C44.8008 18.0625 45.1303 17.9574 45.3917 17.7472C45.6531 17.5369 45.8462 17.2571 45.9712 16.9077C46.0991 16.5582 46.163 16.1733 46.163 15.7528C46.163 15.3352 46.0991 14.9517 45.9712 14.6023C45.8462 14.25 45.6531 13.9673 45.3917 13.7543C45.1303 13.5412 44.8008 13.4347 44.4031 13.4347C44.0025 13.4347 43.6701 13.5412 43.4059 13.7543C43.1445 13.9673 42.9499 14.25 42.8221 14.6023C42.6971 14.9517 42.6346 15.3352 42.6346 15.7528C42.6346 16.1733 42.6971 16.5582 42.8221 16.9077C42.9499 17.2571 43.1445 17.5369 43.4059 17.7472C43.6701 17.9574 44.0025 18.0625 44.4031 18.0625ZM48.0838 13.554V12.4545H53.6065V13.554H51.4716V19H50.2273V13.554H48.0838ZM57.4066 19.1321C56.793 19.1321 56.2575 18.9915 55.8001 18.7102C55.3427 18.429 54.9876 18.0355 54.7347 17.5298C54.4819 17.0241 54.3555 16.4332 54.3555 15.7571C54.3555 15.0781 54.4819 14.4844 54.7347 13.9759C54.9876 13.4673 55.3427 13.0724 55.8001 12.7912C56.2575 12.5099 56.793 12.3693 57.4066 12.3693C58.0202 12.3693 58.5558 12.5099 59.0131 12.7912C59.4705 13.0724 59.8256 13.4673 60.0785 13.9759C60.3313 14.4844 60.4577 15.0781 60.4577 15.7571C60.4577 16.4332 60.3313 17.0241 60.0785 17.5298C59.8256 18.0355 59.4705 18.429 59.0131 18.7102C58.5558 18.9915 58.0202 19.1321 57.4066 19.1321ZM57.4109 18.0625C57.8086 18.0625 58.1381 17.9574 58.3995 17.7472C58.6609 17.5369 58.854 17.2571 58.979 16.9077C59.1069 16.5582 59.1708 16.1733 59.1708 15.7528C59.1708 15.3352 59.1069 14.9517 58.979 14.6023C58.854 14.25 58.6609 13.9673 58.3995 13.7543C58.1381 13.5412 57.8086 13.4347 57.4109 13.4347C57.0103 13.4347 56.6779 13.5412 56.4137 13.7543C56.1523 13.9673 55.9577 14.25 55.8299 14.6023C55.7049 14.9517 55.6424 15.3352 55.6424 15.7528C55.6424 16.1733 55.7049 16.5582 55.8299 16.9077C55.9577 17.2571 56.1523 17.5369 56.4137 17.7472C56.6779 17.9574 57.0103 18.0625 57.4109 18.0625ZM66.0646 12.4545V13.554H63.1371V19H61.88V12.4545H66.0646ZM67.4112 21.4545V12.4545H68.6555V13.5156H68.7621C68.8359 13.3793 68.9425 13.2216 69.0817 13.0426C69.2209 12.8636 69.4141 12.7074 69.6612 12.5739C69.9084 12.4375 70.2351 12.3693 70.6413 12.3693C71.1697 12.3693 71.6413 12.5028 72.0561 12.7699C72.4709 13.0369 72.7962 13.4219 73.032 13.9247C73.2706 14.4276 73.3899 15.0327 73.3899 15.7401C73.3899 16.4474 73.272 17.054 73.0362 17.5597C72.8004 18.0625 72.4766 18.4503 72.0646 18.723C71.6527 18.9929 71.1825 19.1278 70.6541 19.1278C70.2564 19.1278 69.9311 19.0611 69.6783 18.9276C69.4283 18.794 69.2322 18.6378 69.0902 18.4588C68.9482 18.2798 68.8388 18.1207 68.7621 17.9815H68.6854V21.4545H67.4112ZM68.6598 15.7273C68.6598 16.1875 68.7266 16.5909 68.8601 16.9375C68.9936 17.2841 69.1868 17.5554 69.4396 17.7514C69.6925 17.9446 70.0021 18.0412 70.3686 18.0412C70.7493 18.0412 71.0675 17.9403 71.3232 17.7386C71.5788 17.5341 71.772 17.2571 71.9027 16.9077C72.0362 16.5582 72.103 16.1648 72.103 15.7273C72.103 15.2955 72.0376 14.9077 71.907 14.5639C71.7791 14.2202 71.5859 13.9489 71.3274 13.75C71.0717 13.5511 70.7521 13.4517 70.3686 13.4517C69.9993 13.4517 69.6868 13.5469 69.4311 13.7372C69.1783 13.9276 68.9865 14.1932 68.8558 14.5341C68.7251 14.875 68.6598 15.2727 68.6598 15.7273ZM76.7223 19.1449C76.3075 19.1449 75.9325 19.0682 75.5973 18.9148C75.2621 18.7585 74.9964 18.5327 74.8004 18.2372C74.6072 17.9418 74.5107 17.5795 74.5107 17.1506C74.5107 16.7812 74.5817 16.4773 74.7237 16.2386C74.8658 16 75.0575 15.8111 75.299 15.6719C75.5405 15.5327 75.8104 15.4276 76.1087 15.3565C76.407 15.2855 76.7109 15.2315 77.0206 15.1946C77.4126 15.1491 77.7308 15.1122 77.9751 15.0838C78.2195 15.0526 78.397 15.0028 78.5078 14.9347C78.6186 14.8665 78.674 14.7557 78.674 14.6023V14.5724C78.674 14.2003 78.5689 13.9119 78.3587 13.7074C78.1513 13.5028 77.8416 13.4006 77.4297 13.4006C77.0007 13.4006 76.6626 13.4957 76.4155 13.6861C76.1712 13.8736 76.0021 14.0824 75.9084 14.3125L74.7109 14.0398C74.853 13.642 75.0604 13.321 75.3331 13.0767C75.6087 12.8295 75.9254 12.6506 76.2834 12.5398C76.6413 12.4261 77.0178 12.3693 77.4126 12.3693C77.674 12.3693 77.951 12.4006 78.2436 12.4631C78.5391 12.5227 78.8146 12.6335 79.0703 12.7955C79.3288 12.9574 79.5405 13.1889 79.7053 13.4901C79.87 13.7884 79.9524 14.1761 79.9524 14.6534V19H78.7081V18.1051H78.657C78.5746 18.2699 78.451 18.4318 78.2862 18.5909C78.1214 18.75 77.9098 18.8821 77.6513 18.9872C77.3928 19.0923 77.0831 19.1449 76.7223 19.1449ZM76.9993 18.1222C77.3516 18.1222 77.6527 18.0526 77.9027 17.9134C78.1555 17.7741 78.3473 17.5923 78.478 17.3679C78.6115 17.1406 78.6783 16.8977 78.6783 16.6392V15.7955C78.6328 15.8409 78.5447 15.8835 78.4141 15.9233C78.2862 15.9602 78.1399 15.9929 77.9751 16.0213C77.8104 16.0469 77.6499 16.071 77.4936 16.0938C77.3374 16.1136 77.2067 16.1307 77.1016 16.1449C76.8544 16.1761 76.6286 16.2287 76.424 16.3026C76.2223 16.3764 76.0604 16.483 75.9382 16.6222C75.8189 16.7585 75.7592 16.9403 75.7592 17.1676C75.7592 17.483 75.8757 17.7216 76.1087 17.8835C76.3416 18.0426 76.6385 18.1222 76.9993 18.1222ZM84.4663 21.2287V10.2727H85.7404V21.2287H84.4663ZM84.4663 19.1321C84.0032 19.1321 83.5813 19.0526 83.2006 18.8935C82.82 18.7315 82.4918 18.5014 82.2163 18.2031C81.9407 17.9048 81.7276 17.5483 81.5771 17.1335C81.4293 16.7187 81.3555 16.2599 81.3555 15.7571C81.3555 15.2486 81.4293 14.7869 81.5771 14.3722C81.7276 13.9574 81.9407 13.6009 82.2163 13.3026C82.4918 13.0043 82.82 12.7741 83.2006 12.6122C83.5813 12.4503 84.0032 12.3693 84.4663 12.3693H84.7816V19.1321H84.4663ZM84.4663 18.0582H84.6452V13.4432H84.4663C84.1594 13.4432 83.8924 13.5057 83.6651 13.6307C83.4379 13.7528 83.2489 13.9219 83.0984 14.1378C82.9478 14.3509 82.8342 14.5966 82.7575 14.875C82.6836 15.1534 82.6467 15.4474 82.6467 15.7571C82.6467 16.1719 82.7134 16.554 82.8469 16.9034C82.9805 17.25 83.1822 17.5298 83.4521 17.7429C83.7219 17.9531 84.06 18.0582 84.4663 18.0582ZM85.7404 19.1321H85.4208V12.3693H85.7404C86.2035 12.3693 86.6254 12.4503 87.006 12.6122C87.3867 12.7741 87.7134 13.0043 87.9862 13.3026C88.2617 13.6009 88.4734 13.9574 88.6211 14.3722C88.7717 14.7869 88.8469 15.2486 88.8469 15.7571C88.8469 16.2599 88.7717 16.7187 88.6211 17.1335C88.4734 17.5483 88.2617 17.9048 87.9862 18.2031C87.7134 18.5014 87.3867 18.7315 87.006 18.8935C86.6254 19.0526 86.2035 19.1321 85.7404 19.1321ZM85.7404 18.0582C86.0472 18.0582 86.3143 17.9986 86.5415 17.8793C86.7688 17.7571 86.9577 17.5895 87.1083 17.3764C87.2589 17.1605 87.3711 16.9148 87.445 16.6392C87.5188 16.3608 87.5558 16.0668 87.5558 15.7571C87.5558 15.3452 87.489 14.9645 87.3555 14.6151C87.2248 14.2628 87.0245 13.9801 86.7546 13.767C86.4847 13.5511 86.1467 13.4432 85.7404 13.4432H85.5572V18.0582H85.7404ZM91.5114 17.2145L94.3963 12.4545H95.7685V19H94.5199V14.2358L91.6477 19H90.2628V12.4545H91.5114V17.2145ZM101.385 19V13.5412H99.8168C99.4446 13.5412 99.1548 13.6278 98.9474 13.8011C98.7401 13.9744 98.6364 14.2017 98.6364 14.483C98.6364 14.7614 98.7315 14.9858 98.9219 15.1562C99.1151 15.3239 99.3849 15.4077 99.7315 15.4077H101.756V16.4389H99.7315C99.2486 16.4389 98.831 16.3594 98.4787 16.2003C98.1293 16.0384 97.8594 15.8097 97.669 15.5142C97.4815 15.2187 97.3878 14.8693 97.3878 14.4659C97.3878 14.054 97.4844 13.6989 97.6776 13.4006C97.8736 13.0994 98.1534 12.8665 98.517 12.7017C98.8835 12.5369 99.3168 12.4545 99.8168 12.4545H102.582V19H101.385ZM97.0895 19L98.9347 15.6932H100.239L98.3935 19H97.0895Z" fill="url(#paint7_linear_7656_2694)"/>
<defs>
<linearGradient id="paint0_linear_7656_2694" x1="0.00124027" y1="14.9814" x2="113.98" y2="15.5928" gradientUnits="userSpaceOnUse">
<stop stop-color="#2D74FF"/>
<stop offset="1" stop-color="#AA22FF"/>
</linearGradient>
<linearGradient id="paint1_linear_7656_2694" x1="24.1787" y1="15.7986" x2="37.4071" y2="54.8859" gradientUnits="userSpaceOnUse">
<stop stop-color="#2D74FF"/>
<stop offset="1" stop-color="#AA22FF"/>
</linearGradient>
<linearGradient id="paint2_linear_7656_2694" x1="16.1425" y1="15.2663" x2="23.196" y2="20.8041" gradientUnits="userSpaceOnUse">
<stop stop-color="#2D74FF"/>
<stop offset="1" stop-color="#AA22FF"/>
</linearGradient>
<linearGradient id="paint3_linear_7656_2694" x1="23.2141" y1="11.5532" x2="24.202" y2="11.941" gradientUnits="userSpaceOnUse">
<stop stop-color="#2D74FF"/>
<stop offset="1" stop-color="#AA22FF"/>
</linearGradient>
<linearGradient id="paint4_linear_7656_2694" x1="22.4283" y1="12.0266" x2="23.0862" y2="13.0597" gradientUnits="userSpaceOnUse">
<stop stop-color="#2D74FF"/>
<stop offset="1" stop-color="#AA22FF"/>
</linearGradient>
<linearGradient id="paint5_linear_7656_2694" x1="15.2141" y1="18.0266" x2="15.9195" y2="18.5804" gradientUnits="userSpaceOnUse">
<stop stop-color="#2D74FF"/>
<stop offset="1" stop-color="#AA22FF"/>
</linearGradient>
<linearGradient id="paint6_linear_7656_2694" x1="14.7141" y1="18.5266" x2="15.4195" y2="19.0804" gradientUnits="userSpaceOnUse">
<stop stop-color="#2D74FF"/>
<stop offset="1" stop-color="#AA22FF"/>
</linearGradient>
<linearGradient id="paint7_linear_7656_2694" x1="46.6328" y1="15.4259" x2="52.6501" y2="36.9804" gradientUnits="userSpaceOnUse">
<stop stop-color="#2D74FF"/>
<stop offset="1" stop-color="#AA22FF"/>
</linearGradient>
<clipPath id="clip0_7656_2694">
<rect width="12" height="12" fill="white" transform="translate(13 9)"/>
</clipPath>
</defs>
</svg>
